<svg id="Layer_1" data-name="Layer 1" xmlns="http://www.w3.org/2000/svg" viewBox="0 0 700 244.72"><defs><style>.cls-1{fill:#191d57;}</style></defs><path class="cls-1" d="M272.36,127.64A122.32,122.32,0,0,0,153.6,279.42c.61,2.45,1.31,4.86,2.06,7.24a122.34,122.34,0,1,0,116.7-159Zm-74,80.46-25.8,9.67-7.11-4.29c13.6-41,49.2-73.24,92.36-79.24a106,106,0,0,1,14.55-1q3,0,6.06.18c48.66,2.78,89.22,38.87,102.31,84.91l-15.82-9.45-24,11.31-68.28,51.5,54-54.51-11.79-12.47-23-1.45-14.29-15.48L161.62,271.55l63.7-56.75Zm181.71,75.83c-.13.41-.27.82-.4,1.22-1.16,3.65-2.51,7.22-4,10.72L373,286.15l-2.4.29,1.86,16.35a120.82,120.82,0,0,1-8.77,14.7l-8.2-29.85-2.78.11,4.37,38.34q-3.29,3.9-6.88,7.51l-12.57-45.71-2.88-.05L340.9,342c-1.71,1.39-3.45,2.74-5.23,4l-16.18-58.81L317,287l8.56,65.44c-1.73,1-3.47,1.94-5.25,2.83l-19.12-69.53-2.22-.2L309.52,360c-1.77.66-3.55,1.29-5.35,1.86l-21.43-77.94-1.94-.2,12,81q-2.73.54-5.51.95l-23-83.7-1.71-.16,12.81,84.86c-1,0-2,.07-3,.07s-1.81,0-2.72-.06l-23.71-86.21-1.57-.1,12.81,85.26q-3-.45-6-1.06l-23.35-84.93-1.57,0L238.06,361c-2.2-.75-4.37-1.56-6.51-2.45l-21.71-79-1.79,0,9.71,72q-3.75-2.2-7.33-4.7l-18.25-66.39-2.27.22,6.19,54.36a120.22,120.22,0,0,1-11.88-13.32l-10.7-38.92-1.88.31,2.67,23.44a119.24,119.24,0,0,1-9.45-22.12c-.79-2.54-1.52-5.11-2.14-7.7-.24-1-.41-2-.62-3,38.32-9.06,77.19-5.18,110.06-1.74h0c33.6,3.69,75.24,8.5,110.53,1.66a.15.15,0,0,1,0,.07C382,277.26,381.08,280.62,380.07,283.93Z" transform="translate(-150 -127.64)"/><polygon class="cls-1" points="61.49 59.49 54.18 65.4 57.55 56.63 49.67 51.51 59.05 52 61.49 42.93 63.92 52 73.3 51.51 65.42 56.63 68.79 65.4 61.49 59.49"/><polygon class="cls-1" points="92.95 46.26 81.16 55.81 86.59 41.64 73.87 33.37 89.02 34.16 92.95 19.5 96.89 34.16 112.04 33.37 99.32 41.64 104.75 55.81 92.95 46.26"/><path class="cls-1" d="M443.76,207h-6.24l20.75-54.62h6.48L485.5,207h-6.32l-5.77-15.68h-23.8Zm27.93-20.6-10.22-28.48-10.22,28.48Z" transform="translate(-150 -127.64)"/><path class="cls-1" d="M497.27,157.18c2.73-2.73,8.19-6.48,17.48-6.48,8.73,0,14.35,3.2,17.63,6.25,3.74,3.51,8.27,10.29,8.27,22.7,0,12-4.37,19.2-8.11,22.78-5.31,5.23-12,6.17-17.41,6.17-9.28,0-14.74-3.12-18-6.32-1.56-1.56-7.8-8.35-7.8-22.63C489.31,168.8,493.13,161.31,497.27,157.18Zm4.21,41.35c2.65,2.73,7.26,5.15,13.58,5.15a18,18,0,0,0,13.34-5.23c3.59-3.66,6.16-9.59,6.16-18.64,0-10.38-3.43-16.54-7-19.82-3.9-3.59-8.5-4.37-12.48-4.37-6.63,0-10.53,2.5-12.72,4.45-3.67,3.35-6.94,9.83-6.94,19.89C495.4,188,497.66,194.63,501.48,198.53Z" transform="translate(-150 -127.64)"/><path class="cls-1" d="M544.5,157.26v-4.92h42v4.92h-18.1V207H562.6v-49.7Z" transform="translate(-150 -127.64)"/><path class="cls-1" d="M629.86,176.22v4.91H600.68V202h32.85V207H594.91V152.34h37.68v4.92H600.68v19Z" transform="translate(-150 -127.64)"/><path class="cls-1" d="M645.55,207h-6.24l20.75-54.62h6.48L687.3,207H681l-5.78-15.68H651.41Zm27.94-20.6-10.22-28.48L653,186.36Z" transform="translate(-150 -127.64)"/><path class="cls-1" d="M695.66,152.34h23.17c6,0,10.77.47,14.36,4.21a14.19,14.19,0,0,1,3.74,10.15,14,14,0,0,1-3.27,9.67,12.73,12.73,0,0,1-6.24,3.9v.16a10.2,10.2,0,0,1,4.76,2.65c3,2.89,3,6.64,3,10.15l.15,6.16a13.14,13.14,0,0,0,2.11,7.57h-6.24c-.55-.86-1.64-2.73-1.8-7.1l-.23-5.77c-.16-3.75-.08-6.72-2.73-9-2.42-2-5.77-2.18-7.8-2.18H701.43v24h-5.77ZM701.43,178h16.86c3.59,0,7.33-.94,9.44-2.89a11.45,11.45,0,0,0,3-8.11c0-3.82-1.4-6.09-2.81-7.26-2.81-2.49-7.41-2.49-10-2.49H701.43Z" transform="translate(-150 -127.64)"/><path class="cls-1" d="M754.79,157.18c2.73-2.73,8.19-6.48,17.48-6.48,8.73,0,14.35,3.2,17.63,6.25,3.74,3.51,8.27,10.29,8.27,22.7,0,12-4.37,19.2-8.11,22.78-5.31,5.23-12,6.17-17.41,6.17-9.28,0-14.74-3.12-18-6.32-1.56-1.56-7.8-8.35-7.8-22.63C746.83,168.8,750.65,161.31,754.79,157.18ZM759,198.53c2.65,2.73,7.26,5.15,13.58,5.15a18,18,0,0,0,13.34-5.23c3.59-3.66,6.16-9.59,6.16-18.64,0-10.38-3.43-16.54-7-19.82-3.9-3.59-8.5-4.37-12.48-4.37-6.63,0-10.54,2.5-12.72,4.45-3.67,3.35-6.94,9.83-6.94,19.89C752.92,188,755.18,194.63,759,198.53Z" transform="translate(-150 -127.64)"/><path class="cls-1" d="M808.26,207H802l20.76-54.62h6.48L850,207h-6.32l-5.77-15.68h-23.8Zm27.93-20.6L826,157.88l-10.22,28.48Z" transform="translate(-150 -127.64)"/><path class="cls-1" d="M491.51,247.58v29.65h-9.6v-5.85h-.15c-3.67,5.62-9,7.41-16.54,7.41-23.65,0-26.92-18.64-26.92-29,0-11.08,4.37-28.72,28.79-28.72,15.84,0,22.47,10,24,19.28h-13.5c-.23-2.19-1.48-8.66-10.53-8.66-15,0-14.82,15.37-14.82,18.49,0,3.28.31,18,14.43,18,5.62,0,11.94-3.2,12.56-10.69H468.26v-9.91Z" transform="translate(-150 -127.64)"/><path class="cls-1" d="M530.24,222.62l20.52,54.61H537.11L533.6,267H513.78l-3.44,10.22H496.77l20.44-54.61Zm.55,35.11-7-20.84-7.17,20.84Z" transform="translate(-150 -127.64)"/><path class="cls-1" d="M569.4,238.22h-.24v39H556.29V222.62h18.1l13,37.53,13-37.53h18.1v54.61H605.68v-39h-.24l-13.65,39h-8.74Z" transform="translate(-150 -127.64)"/><path class="cls-1" d="M643.11,222.62v54.61H630.24V222.62Z" transform="translate(-150 -127.64)"/><path class="cls-1" d="M667.47,243.06v34.17H654.6V222.62h13l21.53,33.94h.24V222.62h12.87v54.61H689.16l-21.53-34.17Z" transform="translate(-150 -127.64)"/><path class="cls-1" d="M764.54,247.58v29.65H755v-5.85h-.16c-3.67,5.62-9,7.41-16.54,7.41-23.64,0-26.92-18.64-26.92-29,0-11.08,4.37-28.72,28.79-28.72,15.84,0,22.47,10,24,19.28H750.58c-.24-2.19-1.49-8.66-10.54-8.66-15,0-14.82,15.37-14.82,18.49,0,3.28.31,18,14.43,18,5.62,0,11.94-3.2,12.57-10.69H741.29v-9.91Z" transform="translate(-150 -127.64)"/><path class="cls-1" d="M438.3,303.73V293.12h45.88v10.61H467.71v44H454.84v-44Z" transform="translate(-150 -127.64)"/><path class="cls-1" d="M490.6,293.12h27.94c5.61,0,18.57,1.4,18.57,15.53,0,9.28-5.93,12.4-9.52,13.65v.16c7.49,2.26,7.8,9.2,7.8,13.26.23,7,.16,9.13,2.11,12H524.39c-2.27-3.28-1.56-5.7-2.19-13.89-.62-6.48-7.25-6.25-8.81-6.25h-9.91v20.14H490.6Zm12.88,24.5h11.78c7.26,0,8.27-4.22,8.27-6.87,0-5.38-3.12-7-8.74-7H503.48Z" transform="translate(-150 -127.64)"/><path class="cls-1" d="M558.63,293.12V325c0,9.05,2.73,13.73,10.77,13.73,7.88,0,10.77-4.29,10.77-13.73V293.12H593v33.94c0,5.54-.86,22.24-23.64,22.24-23,0-23.64-16.31-23.64-22.24V293.12Z" transform="translate(-150 -127.64)"/><path class="cls-1" d="M613.88,330c0,3.36,1.72,8.66,10.93,8.66,4.76,0,9.75-.85,9.75-5.61,0-5.86-7.34-7.1-13.89-8.51-9.75-2.1-18-4.68-18-16.85,0-8.82,5.85-16.15,22.39-16.15,15.13,0,20.52,8.66,20.75,16.54H633.62c-.39-3-2.34-5.93-9.36-5.93-6.4,0-8.43,2.5-8.43,5.23,0,4.68,6.09,5.93,10.77,6.71,11.55,2.34,21.14,5,21.14,17,0,4.44-1.24,18.18-23.09,18.18-20.13,0-23.8-12-23.8-19.28Z" transform="translate(-150 -127.64)"/><path class="cls-1" d="M651.5,303.73V293.12h45.88v10.61H680.91v44H668v-44Z" transform="translate(-150 -127.64)"/></svg>