<svg id="Layer_1" style="enable-background:new 0 0 841.89 595.28;" version="1.1" viewBox="0 100 841.89 350" x="0px" xml:space="preserve" xmlns="http://www.w3.org/2000/svg" xmlns:xlink="http://www.w3.org/1999/xlink" y="0px">
<style type="text/css">
	.st0{fill:#000000;}
</style>
<g>
<path class="st0" d="M685.47,442.09H691v-26.36h10.03v-5.13h-25.6v5.13h10.03V442.09z M652.92,442.54c6.61,0,11.25-3.51,11.25-9.4
		v-0.09c0-5.22-3.42-7.6-10.08-9.22c-6.07-1.44-7.51-2.52-7.51-4.95v-0.09c0-2.07,1.89-3.73,5.13-3.73c2.88,0,5.71,1.12,8.55,3.24
		l2.97-4.18c-3.19-2.56-6.84-3.96-11.43-3.96c-6.25,0-10.75,3.73-10.75,9.13v0.09c0,5.8,3.78,7.78,10.48,9.4
		c5.85,1.35,7.11,2.56,7.11,4.81v0.09c0,2.34-2.16,3.96-5.58,3.96c-3.87,0-6.93-1.48-9.94-4.09l-3.33,3.96
		C643.56,440.87,648.11,442.54,652.92,442.54 M613.05,442.58c8.23,0,13.54-4.72,13.54-14.13V410.6h-5.53v18.13
		c0,5.8-3.01,8.73-7.92,8.73c-4.95,0-7.96-3.1-7.96-8.95V410.6h-5.53v18.13C599.64,437.86,604.86,442.58,613.05,442.58
		 M565.43,426.21v-10.57h8.05c4.09,0,6.52,1.85,6.52,5.22v0.09c0,3.19-2.52,5.26-6.48,5.26H565.43z M559.9,442.09h5.53v-10.98h6.93
		l7.74,10.98h6.57l-8.5-11.92c4.37-1.26,7.47-4.36,7.47-9.54v-0.09c0-2.75-0.94-5.09-2.61-6.79c-2.02-1.98-5.13-3.15-9.09-3.15
		H559.9V442.09z M530.86,442.09h5.53v-26.36h10.03v-5.13h-25.6v5.13h10.03V442.09z M465.53,442.09h5.58v-12.55l12.51-18.94h-6.34
		l-8.91,13.9l-8.77-13.9h-6.57l12.51,19.07V442.09z M427.22,442.09h5.53v-26.36h10.03v-5.13h-25.6v5.13h10.03V442.09z
		 M397.87,442.09h5.53V410.6h-5.53V442.09z M354.31,442.09h5.44v-22.4l17.37,22.4h4.63V410.6h-5.44v21.77l-16.87-21.77h-5.13V442.09
		z M325.45,442.58c8.23,0,13.54-4.72,13.54-14.13V410.6h-5.53v18.13c0,5.8-3.01,8.73-7.92,8.73c-4.95,0-7.96-3.1-7.96-8.95V410.6
		h-5.53v18.13C312.05,437.86,317.26,442.58,325.45,442.58 M265.78,442.09h5.44V419.6l9.85,14.76h0.18l9.94-14.84v22.58h5.53V410.6
		h-5.89l-9.58,14.89l-9.58-14.89h-5.89V442.09z M219.02,442.09h5.44V419.6l9.85,14.76h0.18l9.94-14.84v22.58h5.53V410.6h-5.89
		l-9.58,14.89l-9.58-14.89h-5.89V442.09z M188.19,437.5c-6.25,0-10.71-5.04-10.71-11.16v-0.09c0-6.12,4.36-11.07,10.62-11.07
		c6.25,0,10.71,5.04,10.71,11.16v0.09C198.81,432.55,194.44,437.5,188.19,437.5 M188.1,442.63c9.67,0,16.51-7.42,16.51-16.28v-0.09
		c0-8.86-6.75-16.2-16.42-16.2c-9.67,0-16.51,7.42-16.51,16.29v0.09C171.68,435.3,178.43,442.63,188.1,442.63 M147.64,442.63
		c5.89,0,9.49-2.16,12.78-5.58l-3.55-3.6c-2.7,2.52-5.17,4.05-9.04,4.05c-6.03,0-10.39-4.99-10.39-11.16v-0.09
		c0-6.16,4.41-11.07,10.35-11.07c3.64,0,6.3,1.53,8.86,3.87l3.55-4.09c-3.01-2.88-6.52-4.91-12.37-4.91
		c-9.49,0-16.2,7.33-16.2,16.29v0.09C131.62,435.48,138.42,442.63,147.64,442.63"></path>
<path class="st0" d="M286.41,261.87c1.2-6.41,1.8-12.42,1.8-18.04c0-16.83-4.66-30.01-13.98-39.53
		c-9.32-9.52-22.2-14.28-38.63-14.28c-11.42,0-21.94,2.36-31.56,7.06c-9.62,4.71-17.73,10.87-24.35,18.49l4.21-24.05h-58.92
		L94.93,360.16h59.22l16.23-91.98c2-9.22,5.91-16.43,11.72-21.64c5.81-5.21,12.93-7.82,21.34-7.82c7.41,0,13.17,2.01,17.29,6.01
		c4.1,4.01,6.16,9.62,6.16,16.83c0,2.41-0.3,5.11-0.9,8.12l-15.93,90.48h58.92L286.41,261.87z M446.22,191.53
		C446.22,191.53,446.22,191.52,446.22,191.53c-3.52,0.06-121.95,0-123.28,0c-0.01,0-0.16,0-0.16,0l-8.72,49
		c4.16,0,43.07,0.03,46.37,0.04c2.88,0.01,5.76-0.01,8.52-0.91c2.83-0.93,5.63-1.98,8.44-2.98c5.77-2.06,11.53-4.17,17.23-6.43
		c3.22-1.28,6.43-2.6,9.6-3.99c10.82-4.72,20.97-10.7,29.49-18.95C438.53,202.67,442.95,197.38,446.22,191.53 M436.24,238.81
		c20.15-25.64,18.95-41.26,18.84-49.06c-1.29,3.18-2,4.38-3.72,7.35c-1.66,2.87-3.62,5.56-5.74,8.11c-1.2,1.44-2.45,2.83-3.73,4.18
		c-1.34,1.41-2.75,2.74-4.14,4.1c1.93,2.79,3.57,5.82,5.34,8.71c0.16,0.26,0.31,0.64,0.53,0.86l-7.83-7.95l-1.82,1.68l6.5,11.04
		l-8.44-9.32l-1.99,1.69l6.66,12.82l-8.91-11.13l-2.13,1.48l6.67,15.11l-9.29-13.57l-2.35,1.37l6.58,17.99l-9.86-16.13l-2.58,1.41
		l6.16,21.03l-10.68-19.34l-2.64,1.1l6.53,24.25l-11.56-22.3l-3.8,1.83l7.11,27.08l-13.41-24.5l-3.47,1.41l7.3,30.29l-15.92-26.95
		l-3.93,1.59l8.97,33.52l-19.01-29.4l-5.62,2.18l12.14,35.95l-23.65-30.31l-6.07,3.64l18.56,40.47l-30.11-32.31l-6.46,6.13
		l25.44,43.29l-35.74-31.72l-6.32,8.46l31.79,42.67l-40.63-29.27l-4.98,8.22l34,39.3l1.06,20.4l5.27,0.75l4.5-16.88h89.54l8.72-49
		H368.3l-7.83,0.04c1.08-1.6,2.14-3.18,3.3-4.86C381.44,280.64,414.12,266.98,436.24,238.81 M567.76,256.16h62.83
		c-0.6-21.04-7.22-37.42-19.84-49.15c-12.62-11.72-29.66-17.59-51.1-17.59c-16.64,0-32.01,3.51-46.14,10.52
		c-14.13,7.02-25.96,16.98-35.47,29.91c-9.52,12.93-15.88,28.21-19.09,45.84c-1.2,6.61-1.8,12.93-1.8,18.94
		c0,21.04,6.46,37.57,19.39,49.6c12.93,12.02,30.41,18.04,52.45,18.04c21.64,0,40.83-5.91,57.56-17.74
		c16.73-11.82,29.01-28.15,36.82-49h-62.82c-5.01,11.02-12.92,16.53-23.75,16.53c-5.81,0-10.42-2.05-13.83-6.16
		c-3.41-4.1-5.11-10.17-5.11-18.18c0-4.01,0.4-8.01,1.2-12.02c2-11.82,5.71-20.79,11.12-26.9c5.41-6.11,11.82-9.17,19.24-9.17
		C560.04,239.62,566.15,245.14,567.76,256.16 M734.59,191.53l7.21-40.88h-59.22l-7.21,40.88h-20.74l-8.72,49h20.74l-9.92,55.61
		c-1.2,6.61-1.8,12.53-1.8,17.74c0,30.86,18.34,46.29,55.01,46.29h25.85l9.02-50.2h-17.14c-4.41,0-7.57-0.75-9.47-2.25
		c-1.91-1.5-2.85-3.86-2.85-7.06c0-1.4,0.1-2.6,0.3-3.61l10.22-56.51h30.36l8.72-49H734.59z"></path>
</g>
</svg>